<?xml version="1.0" encoding="utf-8"?>
<!-- Generator: Adobe Illustrator 22.1.0, SVG Export Plug-In . SVG Version: 6.00 Build 0)  -->
<svg version="1.1" id="Layer_1" xmlns="http://www.w3.org/2000/svg" xmlns:xlink="http://www.w3.org/1999/xlink" x="0px" y="0px"
	 viewBox="0 0 740 236" style="enable-background:new 0 0 740 236;" xml:space="preserve">
<style type="text/css">
	.st0{fill:url(#SVGID_2_);}
	.st1{fill:#191919;}
</style>
<g>
	<linearGradient id="SVGID_2_" gradientUnits="userSpaceOnUse" x1="155.7877" y1="28.6827" x2="29.5791" y2="201.9521">
		<stop  offset="0" style="stop-color:#EC1C6C"/>
		<stop  offset="0.1419" style="stop-color:#D81C69"/>
		<stop  offset="0.4337" style="stop-color:#A31B63"/>
		<stop  offset="0.8464" style="stop-color:#4F1A58"/>
		<stop  offset="1" style="stop-color:#2E1954"/>
	</linearGradient>
	<path id="SVGID_1_" class="st0" d="M30,26.3c-5.5,0-10,4.5-10,9.9v155.2c0,3.9,5.3,4.9,6.8,1.3l31.9-78.8c0.6-1.5,2.7-1.5,3.2,0
		l20,49.4c0.5,1.1,0.5,2.4,0,3.6l-16.3,40.3c-0.5,1.3,0.4,2.6,1.8,2.6h53.8c1.4,0,2.3-1.4,1.8-2.6L73.7,85.3
		c-0.7-1.8,0.6-3.7,2.5-3.7h38.9c1.1,0,2.1,0.7,2.5,1.7c2.1,5.1,10.5,25.9,44.5,109.7c1.5,3.6,6.8,2.6,6.8-1.3V36.2
		c0-5.5-4.5-9.9-10-9.9H30z"/>
	<g>
		<path class="st1 changeToBlack" d="M259.9,174.1h-27.1l-5.9,18.7h-16.6l26.8-77.2h19l26.8,77.2h-17.2L259.9,174.1z M236.3,162h20.2l-9.9-31.6
			h-0.4L236.3,162z"/>
		<path class="st1 changeToBlack" d="M306.9,192.8h-16.1v-77.2h31.6c17.8,0,27.9,9.4,27.9,24.6c0,9.9-5.1,18.4-14,21.9l16.3,30.6h-18.3l-14.4-28.2
			h-12.9V192.8z M306.9,152.9h13.9c8.1,0,12.9-4.7,12.9-12.3c0-7.5-5-12.3-13-12.3h-13.7V152.9z"/>
	</g>
	<g>
		<path class="st1 changeToBlack" d="M406.2,192.8l-28.9-77.2h7.8l24.6,68.1h0.3l24.7-68.1h7.7l-28.9,77.2H406.2z"/>
		<path class="st1 changeToBlack" d="M450.8,192.8v-77.2h7.3v77.2H450.8z"/>
		<path class="st1 changeToBlack" d="M476.1,171.8c0.8,9.3,9.5,15.6,21.6,15.6c11.6,0,19.8-6.3,19.8-15c0-7.2-5-11.5-16.4-14.4l-9.6-2.5
			c-14.3-3.6-20.6-9.7-20.6-19.8c0-12.5,11.2-21.3,26.4-21.3c15,0,26,8.9,26.5,21.1h-7.3c-0.7-8.7-8.4-14.5-19.4-14.5
			c-10.7,0-18.6,5.9-18.6,14.4c0,6.6,4.8,10.5,16.1,13.4l8.3,2.1c15.5,3.9,22,9.8,22,20.6c0,13.5-10.9,22.4-28,22.4
			c-16.1,0-27.5-8.9-28.3-22.2H476.1z"/>
		<path class="st1 changeToBlack" d="M543,165.4c0,12.9,8.4,21.8,22.6,21.8c14.2,0,22.6-8.9,22.6-21.8v-49.8h7.3v50.2c0,16.6-11.3,28.2-29.9,28.2
			c-18.6,0-29.8-11.6-29.8-28.2v-50.2h7.3V165.4z"/>
		<path class="st1 changeToBlack" d="M651.8,169.2h-32.4l-8.6,23.6h-7.8l28.9-77.2h7.3l28.8,77.2h-7.7L651.8,169.2z M621.6,162.9h28l-13.8-38.2
			h-0.3L621.6,162.9z"/>
		<path class="st1 changeToBlack" d="M722.5,192.8h-45.9v-77.2h7.3v70.5h38.7V192.8z"/>
	</g>
</g>
</svg>
