<?xml version="1.0" encoding="utf-8"?>
<!-- Generator: Adobe Illustrator 22.1.0, SVG Export Plug-In . SVG Version: 6.00 Build 0)  -->
<svg version="1.1" baseProfile="tiny" id="Layer_1" xmlns="http://www.w3.org/2000/svg" xmlns:xlink="http://www.w3.org/1999/xlink"
	 x="0px" y="0px" viewBox="0 0 120 120" xml:space="preserve">
<g>
	<path fill="#FFFFFF" d="M118.1,4.6l-27,12.3l-0.6,0.3v0.6v88.5v0.6l0.6,0.3l27,12.3l1.4,0.6v-1.6V5.6V4L118.1,4.6z M97.6,102.4
		V21.7l14.8-6.7v94.1L97.6,102.4z"/>
	<path fill="#FFFFFF" d="M1.9,4.6L0.5,4v1.6v113.1v1.6l1.4-0.6l27-12.3l0.6-0.3v-0.6V17.8v-0.6l-0.6-0.3L1.9,4.6z M7.6,109.1V15
		l14.8,6.7v80.7L7.6,109.1z"/>
	<path fill="#FFFFFF" d="M74.3,17.9l0.7-4.5h5.2h1.3l-0.3-1.2l-1.8-8l-0.2-0.8h-0.8h-9.3h-0.7l-0.2,0.7l-2.7,8L65,13.4h1.4h3.9
		l-0.7,4.5H50.4l-0.7-4.5h3.9H55L54.5,12l-2.7-8l-0.2-0.7h-0.7h-9.3h-0.8l-0.2,0.8l-1.8,8l-0.3,1.2h1.3H45l0.7,4.5H34.3h-1v1v86.4v1
		h1h51.4h1v-1V18.9v-1h-1H74.3z M43.7,6.9h5.4l1,2.9h-7L43.7,6.9z M70,9.8l1-2.9h5.4L77,9.8H70z M67.6,93.8v5.4H52.4v-5.4H67.6z
		 M67.6,81.3v7.9H52.4v-7.9H67.6z M67.6,68.2v8.6H52.4v-8.6H67.6z M67.6,55.5v8.2H52.4v-8.2H67.6z M71.1,50.9H48.9h-1v1v47.3h-7.5
		V25h39.2v74.2h-7.5V51.9v-1H71.1z"/>
	<rect x="57.9" y="58.3" fill="#FFFFFF" width="4.2" height="2.5"/>
	<rect x="57.9" y="71.2" fill="#FFFFFF" width="4.2" height="2.5"/>
	<rect x="57.9" y="84.2" fill="#FFFFFF" width="4.2" height="2.5"/>
</g>
</svg>
