<?xml version="1.0" encoding="utf-8"?>
<!-- Generator: Adobe Illustrator 22.1.0, SVG Export Plug-In . SVG Version: 6.00 Build 0)  -->
<svg version="1.1" baseProfile="tiny" id="Layer_1" xmlns="http://www.w3.org/2000/svg" xmlns:xlink="http://www.w3.org/1999/xlink"
	 x="0px" y="0px" viewBox="0 0 260 96" xml:space="preserve">
<g>
	<g>
		<path fill="#FFFFFF" d="M242.7,87H17.3c-6.5,0-11.8-5.3-11.8-11.8V20.8C5.5,14.3,10.8,9,17.3,9h225.4c6.5,0,11.8,5.3,11.8,11.8
			v54.4C254.5,81.7,249.2,87,242.7,87z M17.3,10.9c-5.5,0-9.9,4.4-9.9,9.9v54.4c0,5.5,4.4,9.9,9.9,9.9h225.4c5.5,0,9.9-4.4,9.9-9.9
			V20.8c0-5.5-4.4-9.9-9.9-9.9H17.3z"/>
	</g>
	<g>
		<g>
			<path fill="#FFFFFF" d="M91.5,40.3c-3.2,0-5.7-2.4-5.7-5.5c0-3,2.5-5.4,5.5-5.4c2.3,0,4.5,1.4,5.1,3.3h-2.3
				c-0.7-0.9-1.7-1.4-2.9-1.4c-2.1,0-3.5,1.6-3.5,3.6c0,2,1.6,3.6,3.6,3.6c1.4,0,2.5-0.7,3.1-1.9h-4.4v-1.8H97V35
				C97,37.9,94.6,40.3,91.5,40.3z"/>
			<path fill="#FFFFFF" d="M98.3,40.1V29.6h5.7v1.9h-3.7v2.5h3.5v1.9h-3.5v2.5h3.7v1.9H98.3z"/>
			<path fill="#FFFFFF" d="M108.8,31.5v8.7h-2v-8.7h-2v-1.9h5.9v1.9H108.8z"/>
			<path fill="#FFFFFF" d="M115.7,40.1V29.6h2v10.5H115.7z"/>
			<path fill="#FFFFFF" d="M122.7,31.5v8.7h-2v-8.7h-2v-1.9h5.9v1.9H122.7z"/>
			<path fill="#FFFFFF" d="M134.7,40.3c-3.1,0-5.5-2.4-5.5-5.4c0-3.1,2.4-5.5,5.6-5.5c3,0,5.4,2.4,5.4,5.4
				C140.1,37.9,137.8,40.3,134.7,40.3z M134.7,31.3c-2,0-3.6,1.5-3.6,3.6c0,2,1.6,3.6,3.6,3.6c2,0,3.5-1.5,3.5-3.5
				C138.2,32.9,136.6,31.3,134.7,31.3z"/>
			<path fill="#FFFFFF" d="M148,40.1l-4.4-7.7v7.7h-2V29.6h2.2l4.4,7.7v-7.7h2v10.5H148z"/>
			<path fill="#FFFFFF" d="M95.8,66.5c-5.5,0-9.7-4-9.7-9.3c0-5.1,4.2-9.2,9.4-9.2c3.9,0,7.5,2.3,8.7,5.5h-3.9
				c-1.1-1.5-2.8-2.4-4.9-2.4c-3.5,0-6,2.7-6,6c0,3.4,2.7,6,6.2,6c2.3,0,4.3-1.2,5.2-3.1h-7.4v-3.1h11.6v0.4
				C105.1,62.4,101,66.5,95.8,66.5z"/>
			<path fill="#FFFFFF" d="M113.4,66.5c-3.9,0-7.1-3.1-7.1-7c0-3.8,3.2-7,7.1-7c4,0,7.1,3.1,7.1,7.1
				C120.5,63.3,117.3,66.5,113.4,66.5z M113.4,55.4c-2.1,0-3.9,1.8-3.9,4c0,2.3,1.7,4.1,3.9,4.1c2.1,0,3.9-1.8,3.9-4
				C117.3,57.3,115.6,55.4,113.4,55.4z"/>
			<path fill="#FFFFFF" d="M128.8,66.5c-3.9,0-7.1-3.1-7.1-7c0-3.8,3.2-7,7.1-7c4,0,7.1,3.1,7.1,7.1
				C135.9,63.3,132.7,66.5,128.8,66.5z M128.8,55.4c-2.1,0-3.9,1.8-3.9,4c0,2.3,1.7,4.1,3.9,4.1c2.1,0,3.9-1.8,3.9-4
				C132.7,57.3,131,55.4,128.8,55.4z"/>
			<path fill="#FFFFFF" d="M144.3,71.5c-3.3,0-5.8-1.6-6.9-4.2h3.6c0.9,1,1.9,1.4,3.3,1.4c2.4,0,3.6-1.4,3.7-4.3
				c-1.3,1.5-2.5,2.1-4.4,2.1c-3.8,0-6.6-3-6.6-7.1c0-4,2.8-6.9,6.6-6.9c1.9,0,3.4,0.6,4.4,2v-1.7h3.1v10.8
				C151.2,69.4,148.4,71.5,144.3,71.5z M144.1,55.4c-2.2,0-3.7,1.6-3.7,4.1c0,2.4,1.5,4,3.8,4s3.8-1.6,3.8-4
				C148,57.1,146.4,55.4,144.1,55.4z"/>
			<path fill="#FFFFFF" d="M154,66.2V48.4h3.2v17.8H154z"/>
			<path fill="#FFFFFF" d="M173,60.9h-10.3c0.4,1.6,1.8,2.6,3.7,2.6c1.3,0,2.1-0.4,2.9-1.3h3.5c-0.9,2.7-3.7,4.3-6.4,4.3
				c-4.1,0-7.2-3-7.2-6.9c0-3.9,3.1-7,7-7c4,0,6.9,3,6.9,7.2C173.1,60.2,173.1,60.5,173,60.9z M166.3,55.4c-1.9,0-3.2,0.9-3.7,2.6
				h7.4C169.6,56.4,168.3,55.4,166.3,55.4z"/>
			<path fill="#FFFFFF" d="M191.3,58.6c-1,0.6-2.1,0.8-4.7,0.8h-1.1v6.8h-3.3V48.4h4.4c2.4,0,3.5,0.2,4.6,0.8
				c1.5,0.9,2.4,2.6,2.4,4.7C193.7,55.9,192.8,57.7,191.3,58.6z M186.7,51.5h-1.1v4.7h1c3,0,3.8-0.8,3.8-2.3
				C190.3,52,189.2,51.5,186.7,51.5z"/>
			<path fill="#FFFFFF" d="M195.4,66.2V48.4h3.2v17.8H195.4z"/>
			<path fill="#FFFFFF" d="M211.8,66.2v-1.7c-1.3,1.4-2.6,2-4.4,2c-3.9,0-6.7-2.9-6.7-6.9c0-4.1,2.8-7,6.8-7c1.9,0,3.3,0.6,4.4,2.1
				v-1.8h2.9v13.3H211.8z M207.8,55.4c-2.3,0-3.9,1.7-3.9,4.2c0,2.3,1.6,3.9,4,3.9c2.4,0,3.9-1.7,3.9-4
				C211.7,57.2,210.1,55.4,207.8,55.4z"/>
			<path fill="#FFFFFF" d="M221.8,70.6h-3.4l2.5-5.7L216,52.8h3.7l3,8.6l3.2-8.6h3.7L221.8,70.6z"/>
		</g>
		<g>
			<path fill="#FFFFFF" d="M60,46.1L40.9,26.9l24.3,13.9L60,46.1L60,46.1z M35.9,25.8c-1.1,0.6-1.9,1.7-1.9,3.1V67
				c0,1.4,0.8,2.5,1.9,3.1l22.2-22.1L35.9,25.8z M72.7,45.3l-5.1-2.9L61.9,48l5.7,5.6l5.2-2.9C74.3,49.3,74.3,46.6,72.7,45.3
				L72.7,45.3z M40.9,69L65.2,55L60,49.8L40.9,69z"/>
		</g>
	</g>
</g>
</svg>
