<?xml version="1.0" encoding="utf-8"?>
<!-- Generator: Adobe Illustrator 22.1.0, SVG Export Plug-In . SVG Version: 6.00 Build 0)  -->
<svg version="1.1" baseProfile="tiny" id="Layer_1" xmlns="http://www.w3.org/2000/svg" xmlns:xlink="http://www.w3.org/1999/xlink"
	 x="0px" y="0px" viewBox="0 0 120 120" xml:space="preserve">
<g>
	<polygon fill="#FFFFFF" points="117,25.2 95.8,25.2 95.8,33.4 105.7,33.4 94.9,66.9 33.2,70.4 28.9,9 3,9 3,17.2 21.3,17.2 
		26.4,91.5 95.8,91.5 95.8,83.3 34.1,83.3 33.8,78.6 101,74.7 	"/>
	<circle fill="#FFFFFF" cx="37.8" cy="102.8" r="8.2"/>
	<circle fill="#FFFFFF" cx="83.2" cy="102.8" r="8.2"/>
	<polygon fill="#FFFFFF" points="59.7,58.1 68.3,58.1 68.3,44.4 82,44.4 82,35.7 68.3,35.7 68.3,22 59.7,22 59.7,35.7 45.9,35.7 
		45.9,44.4 59.7,44.4 	"/>
</g>
</svg>
