<?xml version="1.0" encoding="utf-8"?>
<!-- Generator: Adobe Illustrator 22.1.0, SVG Export Plug-In . SVG Version: 6.00 Build 0)  -->
<svg version="1.1" baseProfile="tiny" id="Layer_1" xmlns="http://www.w3.org/2000/svg" xmlns:xlink="http://www.w3.org/1999/xlink"
	 x="0px" y="0px" viewBox="0 0 120 120" xml:space="preserve">
<g>
	<path fill="#FFFFFF" d="M63.1,73.1v-8.1c2.2,0.6,4.5,1.7,6.6,3.1l3.6-6.2c-2.9-2-6.1-3.4-9.9-3.9v-3.2h-5.5v3.1
		c-6.7,0.7-11.2,4.6-11.2,10.4v0.1c0,6.3,3.8,9.2,11.4,11.3v8.5c-3.1-0.6-5.8-2.1-8.7-4.3l-4.1,6.1c3.5,2.7,8,4.5,12.5,5.1v5.4h5.5
		v-5.3c6.7-0.7,11.3-4.5,11.3-10.5v-0.1C74.7,78.6,71.2,75.3,63.1,73.1z M58.1,71.8c-2.9-1.1-3.7-2.1-3.7-3.8v-0.1
		c0-1.7,1.1-3,3.7-3.3V71.8z M66.9,85.1c0,1.9-1.3,3-3.8,3.4V81c2.9,1.1,3.8,2.2,3.8,3.9V85.1z"/>
	<path fill="#FFFFFF" d="M68.8,39.2V27.6h16.5L60,3L34.7,27.6h16.5v11.6c-17.5,4-30.6,19.7-30.6,38.4C20.6,99.3,38.3,117,60,117
		s39.4-17.7,39.4-39.4C99.4,58.9,86.3,43.2,68.8,39.2z M60,109c-17.3,0-31.4-14.1-31.4-31.4S42.7,46.2,60,46.2s31.4,14.1,31.4,31.4
		S77.3,109,60,109z"/>
</g>
</svg>
