<?xml version="1.0" encoding="utf-8"?>
<!-- Generator: Adobe Illustrator 22.1.0, SVG Export Plug-In . SVG Version: 6.00 Build 0)  -->
<svg version="1.1" baseProfile="tiny" id="Layer_1" xmlns="http://www.w3.org/2000/svg" xmlns:xlink="http://www.w3.org/1999/xlink"
	 x="0px" y="0px" viewBox="0 0 120 120" xml:space="preserve">
<g>
	<path fill="#FFFFFF" d="M99.4,79.2c-5.9-5.9-13-10.3-20.7-13C88.7,60,95.3,49,95.3,36.5c0-19.2-15.6-34.8-34.8-34.8
		S25.7,17.3,25.7,36.5c0,12.5,6.7,23.6,16.6,29.7c-7.7,2.7-14.8,7.1-20.7,13C11.2,89.6,5.5,103.4,5.5,118.1h9.8
		c0-24.9,20.3-45.2,45.2-45.2s45.2,20.3,45.2,45.2h9.8C115.5,103.4,109.8,89.6,99.4,79.2z M35.5,36.5c0-13.8,11.2-25,25-25
		s25,11.2,25,25c0,13.8-11.2,25-25,25S35.5,50.3,35.5,36.5z"/>
</g>
</svg>
